<svg height='100px' width='100px'  fill="#000000" xmlns="http://www.w3.org/2000/svg" xmlns:xlink="http://www.w3.org/1999/xlink" version="1.1" x="0px" y="0px" viewBox="0 0 100 100" style="enable-background:new 0 0 100 100;" xml:space="preserve"><g><path d="M90,30.8c-2.6-2.6-6-4-9.7-4v8c1.5,0,3,0.6,4,1.7c1.1,1.1,1.7,2.5,1.7,4s-0.6,2.9-1.7,4c-1.1,1.1-2.5,1.7-4,1.7H11.6v8   h68.7c3.6,0,7.1-1.4,9.7-4c2.6-2.6,4-6,4-9.7C94,36.9,92.6,33.4,90,30.8z"></path><path d="M74,26.5c0-7.6-6.1-13.7-13.7-13.7c-7.6,0-13.7,6.1-13.7,13.7h8c0-3.1,2.6-5.7,5.7-5.7c3.1,0,5.7,2.6,5.7,5.7   c0,3.1-2.6,5.7-5.7,5.7H1.6v8h58.7C67.9,40.2,74,34.1,74,26.5z"></path><path d="M50.3,60.2H21.6v8h28.7c1.5,0,2.9,0.6,4,1.7c1.1,1.1,1.7,2.5,1.7,4s-0.6,2.9-1.7,4c-1.1,1.1-2.5,1.7-4,1.7s-2.9-0.6-4-1.7   c-1.1-1.1-1.7-2.5-1.7-4h-8c0,3.7,1.4,7.1,4,9.7c2.6,2.6,6,4,9.7,4s7.1-1.4,9.7-4s4-6,4-9.7c0-3.6-1.4-7.1-4-9.7   C57.4,61.6,53.9,60.2,50.3,60.2z"></path></g></svg>